<svg viewBox="0 0 1875 1875" xmlns="http://www.w3.org/2000/svg" xmlns:xlink="http://www.w3.org/1999/xlink" fill="none">
	<defs>
		<clipPath id="clipPath_0">
			<rect width="1875" height="1875" x="0" y="0" rx="200" />
		</clipPath>
	</defs>
	<g clip-path="url(#clipPath_0)">
	<rect id="容器 1" width="1875" height="1875" x="0" y="0" rx="200" fill="rgb(7,176,157)" />
	<g transform="translate(937.5, 937.5) scale(1.20) translate(-900, -768)">
	<path id="矢量 5" d="M477.361 473C483.319 473.961 488.785 475.723 494.361 478C495.294 478.373 496.227 478.745 497.189 479.129C504.269 482.324 510.413 487.059 516.361 492C519.879 495.174 523.33 498.353 526.361 502C527.634 504.797 527.634 504.797 528.361 507C529.021 507 529.681 507 530.361 507C532.333 510.179 534.286 513.37 536.236 516.563C536.791 517.458 537.347 518.353 537.919 519.275C542.505 526.816 542.505 526.816 543.744 531.152C544.049 532.562 544.049 532.562 544.361 534C545.021 534 545.681 534 546.361 534C557.125 552.474 557.125 552.474 560.361 558.563C563.308 564.038 566.57 569.307 569.833 574.598C574.248 581.773 578.521 589.027 582.787 596.291C585.562 601.003 588.378 605.666 591.361 610.25C593.934 614.215 596.059 618.275 598.115 622.527C600.284 626.831 602.822 630.907 605.361 635C605.853 635.794 606.346 636.588 606.853 637.406C608.017 639.274 609.188 641.138 610.361 643C610.361 643.99 610.361 644.98 610.361 646C611.021 646 611.681 646 612.361 646C612.69 646.62 613.018 647.24 613.357 647.879C616.661 654.03 620.14 660.047 623.757 666.017C625.839 669.457 627.898 672.908 629.916 676.387C634.428 684.163 638.994 691.768 644.361 699C644.361 699.66 644.361 700.32 644.361 701C646.011 700.67 647.661 700.34 649.361 700C650.812 698.738 650.812 698.738 652.361 697C653.185 695.508 653.952 693.982 654.673 692.438C656.9 687.821 659.418 683.478 662.126 679.129C663.495 676.933 663.495 676.933 664.361 674C665.021 674 665.681 674 666.361 674C666.606 673.162 666.851 672.324 667.103 671.461C668.522 667.556 670.379 664.19 672.486 660.625C672.858 659.984 673.231 659.344 673.615 658.684C674.525 657.12 675.442 655.559 676.361 654C677.021 654 677.681 654 678.361 654C678.65 653.093 678.938 652.185 679.236 651.25C680.126 648.678 681.076 646.387 682.361 644C683.021 644 683.681 644 684.361 644C684.455 643.29 684.549 642.579 684.646 641.848C685.361 639 685.361 639 686.919 636.246C687.539 635.319 688.159 634.392 688.798 633.438C690.848 630.353 692.789 627.357 694.361 624C695.021 624 695.681 624 696.361 624C696.606 623.162 696.851 622.324 697.103 621.461C698.522 617.556 700.379 614.19 702.486 610.625C702.858 609.984 703.231 609.344 703.615 608.684C704.525 607.12 705.442 605.559 706.361 604C707.021 604 707.681 604 708.361 604C708.46 603.282 708.559 602.564 708.662 601.824C709.361 599 709.361 599 710.779 596.457C711.363 595.584 711.947 594.712 712.548 593.813C717.188 586.743 721.736 579.652 725.361 572C726.021 572 726.681 572 727.361 572C727.67 570.824 727.67 570.824 727.986 569.625C729.563 565.468 731.685 561.941 734.021 558.172C735.366 556.063 735.366 556.063 736.361 554C737.021 554 737.681 554 738.361 554C738.65 553.093 738.938 552.185 739.236 551.25C740.126 548.678 741.076 546.387 742.361 544C743.021 544 743.681 544 744.361 544C744.473 543.441 744.585 542.881 744.701 542.305C746.068 537.53 748.936 533.305 751.361 529C752.264 527.347 752.264 527.347 753.185 525.66C759.032 515.116 765.757 505.366 773.361 496C774.021 496 774.681 496 775.361 496C775.361 495.34 775.361 494.68 775.361 494C782.46 488.102 789.883 482.736 798.429 479.126C800.644 478.255 802.87 477.428 805.111 476.625C805.808 476.374 806.504 476.123 807.222 475.865C813.383 473.769 819.448 473.044 825.919 472.762C834.984 472.556 843.649 472.873 852.47 475.094C857.999 476.666 862.872 478.969 867.716 482.09C872.829 485.783 877.397 489.522 881.33 494.484C883.089 496.945 884.74 499.446 886.361 502C887.083 503.052 887.805 504.104 888.548 505.188C891.689 510.97 893.033 517.604 894.361 524C896.228 535.809 896.654 547.478 896.635 559.413C896.639 561.206 896.645 563 896.651 564.793C896.665 569.672 896.667 574.551 896.666 579.43C896.668 584.711 896.681 589.992 896.692 595.273C896.715 606.793 896.723 618.314 896.728 629.834C896.732 637.035 896.738 644.236 896.745 651.437C896.765 671.4 896.781 691.364 896.784 711.327C896.784 712.602 896.785 713.877 896.785 715.19C896.785 717.774 896.785 720.358 896.786 722.942C896.786 724.224 896.786 725.507 896.786 726.828C896.787 728.755 896.787 728.755 896.787 730.72C896.79 751.543 896.818 772.366 896.855 793.189C896.893 814.602 896.912 836.014 896.913 857.426C896.913 869.435 896.922 881.444 896.951 893.453C896.975 903.673 896.982 913.893 896.967 924.113C896.96 929.323 896.961 934.531 896.984 939.741C897.004 944.518 897.002 949.295 896.981 954.073C896.977 955.792 896.982 957.511 896.997 959.23C897.057 966.937 896.855 974.169 894.694 981.613C892.167 989.601 888.935 996.965 884.361 1004C882.281 1006.78 880.137 1008.92 877.361 1011C871.492 1014.92 865.582 1018.28 858.837 1020.42C854.342 1021.48 849.898 1021.49 845.298 1021.44C844.292 1021.43 843.285 1021.42 842.249 1021.41C834.795 1021.25 827.96 1020.43 820.81 1018.32C816.446 1016.65 812.643 1014.74 808.826 1012.04C803.739 1007.83 799.49 1003.21 795.833 997.699C792.657 991.955 790.642 985.652 789.205 979.265C787.142 968.188 787.833 956.655 787.897 945.427C787.914 941.561 787.908 937.695 787.905 933.829C787.903 927.148 787.915 920.467 787.938 913.786C787.971 904.127 787.981 894.468 787.986 884.809C787.995 869.134 788.021 853.458 788.059 837.783C788.096 822.566 788.124 807.348 788.141 792.131C788.142 791.191 788.143 790.252 788.144 789.283C788.149 784.569 788.155 779.854 788.16 775.139C788.201 736.093 788.271 697.047 788.361 658C787.041 658.33 785.721 658.66 784.361 659C784.021 659.99 784.021 659.99 783.673 661C782.352 664.019 780.735 666.692 778.962 669.465C776.985 672.594 775.076 675.763 773.173 678.938C772.602 679.889 772.602 679.889 772.02 680.859C769.902 684.395 767.806 687.942 765.732 691.504C765.294 692.254 764.857 693.003 764.406 693.776C763.568 695.216 762.732 696.658 761.899 698.101C759.966 701.42 757.97 704.595 755.689 707.688C753.731 710.362 752.55 712.896 751.361 716C750.045 718.128 748.686 720.23 747.298 722.313C743.932 727.432 740.817 732.633 737.861 738C734.689 743.744 731.325 749.296 727.734 754.786C724.635 759.533 721.71 764.368 718.815 769.241C715.566 774.696 712.195 780.07 708.808 785.441C706.735 788.745 704.742 792.047 702.923 795.5C698.295 804.106 692.298 812.25 686.361 820C685.701 820 685.041 820 684.361 820C683.701 821.32 683.041 822.64 682.361 824C677.169 828.352 671.995 831.958 665.916 834.957C662.732 836.257 659.72 837.227 656.361 838C653.022 838.271 649.709 838.28 646.361 838.25C645.497 838.258 644.633 838.266 643.744 838.273C639.776 838.261 636.384 838.005 632.501 837.086C624.753 834.407 618.5 830.931 611.841 826.098C609.29 823.94 607.354 821.672 605.361 819C605.361 818.34 605.361 817.68 605.361 817C604.701 817 604.041 817 603.361 817C595.534 804.768 587.753 792.501 580.361 780C580.361 779.34 580.361 778.68 580.361 778C579.701 778 579.041 778 578.361 778C577.232 775.939 576.108 773.877 574.986 771.812C574.359 770.664 573.733 769.515 573.087 768.332C571.664 765.585 570.44 762.895 569.361 760C568.701 760 568.041 760 567.361 760C565.711 756.7 564.061 753.4 562.361 750C562.361 749.34 562.361 748.68 562.361 748C561.701 748 561.041 748 560.361 748C560.058 747.371 559.755 746.742 559.443 746.094C557.105 741.318 554.672 736.715 551.798 732.242C549.304 728.352 546.909 724.401 544.494 720.461C543.045 718.102 541.58 715.755 540.103 713.414C539.738 712.832 539.373 712.249 538.997 711.649C537.977 710.023 536.952 708.4 535.927 706.777C534.361 704 534.361 704 533.638 701.629C533.547 701.091 533.455 700.554 533.361 700C532.701 700 532.041 700 531.361 700C528.886 695.05 528.886 695.05 526.361 690C526.361 689.34 526.361 688.68 526.361 688C525.701 688 525.041 688 524.361 688C524.009 687.25 523.657 686.5 523.294 685.727C520.308 679.536 517.085 673.891 513.041 668.336C510.637 664.993 508.507 661.512 506.361 658C505.371 657.67 504.381 657.34 503.361 657C503.361 728.28 503.361 799.56 503.361 873C468.381 873 433.401 873 397.361 873C397.317 831.19 397.28 789.38 397.259 747.57C397.256 742.625 397.254 737.68 397.251 732.735C397.25 731.259 397.25 731.259 397.249 729.752C397.241 713.849 397.225 697.946 397.207 682.043C397.188 665.704 397.177 649.365 397.173 633.026C397.17 622.958 397.161 612.89 397.145 602.822C397.134 595.902 397.131 588.982 397.134 582.061C397.135 578.079 397.133 574.097 397.122 570.115C397.052 542.699 397.052 542.699 398.203 529.968C398.31 528.756 398.31 528.756 398.419 527.521C398.975 522.328 400.209 517.613 402.111 512.75C405.779 504.638 410.267 498.115 416.048 491.375C420.084 487.088 424.06 483.511 429.173 480.57C444.845 472.85 459.947 471.262 477.361 473Z" fill="rgb(249,253,251)" fill-rule="nonzero" />
	<path id="矢量 6" d="M1044.36 473C1051.71 474.076 1059.07 475.703 1065.92 478.641C1070.92 481.422 1075.19 485.114 1079.36 489C1081.19 490.939 1082.77 492.861 1084.36 495C1084.36 495.66 1084.36 496.32 1084.36 497C1085.85 497.495 1085.85 497.495 1087.36 498C1087.88 498.797 1088.4 499.593 1088.94 500.414C1092.51 505.848 1096.04 511.135 1100.36 516C1100.36 516.66 1100.36 517.32 1100.36 518C1101.02 518 1101.68 518 1102.36 518C1103.68 520.31 1105 522.62 1106.36 525C1106.36 525.99 1106.36 526.98 1106.36 528C1107.68 528.66 1109 529.32 1110.36 530C1110.8 530.701 1111.23 531.403 1111.68 532.125C1114.93 537.301 1118.23 542.338 1122 547.149C1123.62 549.347 1124.96 551.66 1126.36 554C1127.51 555.677 1128.68 557.343 1129.86 559C1132.18 562.258 1134.34 565.548 1136.36 569C1136.36 569.66 1136.36 570.32 1136.36 571C1137.02 571 1137.68 571 1138.36 571C1138.94 572.052 1139.52 573.104 1140.11 574.188C1141.42 576.484 1142.7 578.424 1144.36 580.5C1146.27 582.892 1147.74 585.343 1149.21 588.02C1151.4 591.8 1153.9 595.388 1156.36 599C1156.36 599.66 1156.36 600.32 1156.36 601C1157.02 601 1157.68 601 1158.36 601C1158.78 601.883 1159.2 602.766 1159.63 603.676C1161.25 606.781 1163 609.4 1165.11 612.188C1175.49 626.225 1175.49 626.225 1178.36 634C1179.02 634 1179.68 634 1180.36 634C1180.83 634.748 1181.3 635.495 1181.79 636.266C1182.41 637.251 1183.03 638.235 1183.67 639.25C1184.29 640.225 1184.9 641.199 1185.54 642.203C1187.07 644.547 1188.65 646.788 1190.36 649C1190.36 649.99 1190.36 650.98 1190.36 652C1191.35 652.33 1192.34 652.66 1193.36 653C1193.99 654.028 1194.62 655.055 1195.27 656.113C1199.71 663.32 1204.22 670.359 1209.29 677.149C1211.79 680.596 1214.14 684.132 1216.49 687.688C1219.02 691.532 1221.55 695.351 1224.36 699C1228.51 704.387 1232.16 710.125 1235.9 715.795C1238.29 719.403 1240.69 723.001 1243.09 726.6C1245.12 729.636 1247.14 732.674 1249.16 735.713C1267.65 763.892 1267.65 763.892 1287.31 791.242C1292.88 798.738 1297.83 806.684 1302.82 814.574C1304.62 817.413 1306.48 820.213 1308.36 823C1309.02 823.33 1309.68 823.66 1310.36 824C1310.36 757.01 1310.36 690.02 1310.36 621C1310.69 620.67 1311.02 620.34 1311.36 620C1346.34 620 1381.32 620 1417.36 620C1417.69 620.33 1418.02 620.66 1418.36 621C1418.41 664.84 1418.44 708.68 1418.46 752.52C1418.47 757.7 1418.47 762.879 1418.47 768.058C1418.47 769.605 1418.47 769.605 1418.47 771.183C1418.48 787.863 1418.5 804.544 1418.52 821.225C1418.53 838.349 1418.55 855.473 1418.55 872.598C1418.55 883.158 1418.56 893.719 1418.58 904.28C1418.59 911.529 1418.59 918.777 1418.59 926.026C1418.59 930.204 1418.59 934.382 1418.6 938.559C1418.61 942.393 1418.61 946.227 1418.6 950.06C1418.6 952.086 1418.61 954.111 1418.62 956.137C1418.59 964.536 1418.05 972.755 1416.36 981C1413.96 988.377 1410.54 995.084 1406.23 1001.54C1403.35 1005.33 1400.19 1008.19 1396.36 1011C1395.14 1011.91 1395.14 1011.91 1393.9 1012.84C1389.15 1016.13 1384.41 1018.61 1378.92 1020.44C1371.37 1022.38 1363.89 1022.48 1356.12 1022.34C1351.39 1022.11 1346.91 1021.32 1342.36 1020C1334.7 1016.96 1326.96 1012.5 1320.4 1007.51C1319.03 1006.37 1317.69 1005.19 1316.36 1004C1316.36 1003.34 1316.36 1002.68 1316.36 1002C1315.37 1001.67 1314.38 1001.34 1313.36 1001C1312.12 999.47 1310.89 997.94 1309.65 996.41C1309.22 995.945 1308.8 995.48 1308.36 995C1307.7 994.67 1307.04 994.34 1306.36 994C1304.7 991.325 1303.36 989.001 1302.36 986C1301.7 986 1301.04 986 1300.36 986C1298.38 982.04 1296.4 978.08 1294.36 974C1294.36 973.34 1294.36 972.68 1294.36 972C1293.7 972 1293.04 972 1292.36 972C1291.96 971.273 1291.56 970.546 1291.15 969.797C1287.32 963.036 1283.23 956.927 1278.47 950.789C1276.3 947.926 1274.33 945.006 1272.36 942C1272.36 941.34 1272.36 940.68 1272.36 940C1271.7 940 1271.04 940 1270.36 940C1269.99 939.403 1269.63 938.807 1269.25 938.192C1263.64 929.207 1257.52 920.614 1251.36 912C1250.9 911.35 1250.43 910.7 1249.95 910.03C1249.07 908.796 1248.19 907.561 1247.31 906.327C1246.48 905.165 1245.65 904.002 1244.82 902.839C1242.96 900.236 1241.1 897.639 1239.22 895.051C1238.27 893.726 1238.27 893.726 1237.3 892.375C1236.75 891.62 1236.2 890.864 1235.64 890.086C1234.36 888 1234.36 888 1233.68 885.727C1233.57 885.157 1233.47 884.587 1233.36 884C1232.7 884 1232.04 884 1231.36 884C1229.71 881.36 1228.06 878.72 1226.36 876C1226.36 875.34 1226.36 874.68 1226.36 874C1225.7 874 1225.04 874 1224.36 874C1223.87 873.126 1223.87 873.126 1223.36 872.234C1220.63 867.521 1217.74 863.074 1214.42 858.75C1207.32 849.468 1200.9 839.688 1194.36 830C1194.36 829.34 1194.36 828.68 1194.36 828C1193.7 828 1193.04 828 1192.36 828C1192.03 826.68 1191.7 825.36 1191.36 824C1190.7 824 1190.04 824 1189.36 824C1188.77 823.059 1188.18 822.118 1187.57 821.149C1186.77 819.891 1185.97 818.633 1185.17 817.375C1184.79 816.758 1184.4 816.14 1184 815.504C1181.38 811.395 1178.55 807.683 1175.36 804C1175.03 802.68 1174.7 801.36 1174.36 800C1173.7 800 1173.04 800 1172.36 800C1171.04 797.36 1169.72 794.72 1168.36 792C1168.36 791.34 1168.36 790.68 1168.36 790C1167.7 790 1167.04 790 1166.36 790C1165.74 789 1165.74 789 1165.11 787.981C1160.8 781.104 1156.21 774.508 1151.36 768C1151.36 767.34 1151.36 766.68 1151.36 766C1150.7 766 1150.04 766 1149.36 766C1148.72 764.961 1148.08 763.922 1147.42 762.852C1142.6 755.075 1137.7 747.432 1132.36 740C1131.05 738.127 1129.73 736.252 1128.42 734.375C1127.84 733.537 1127.25 732.699 1126.65 731.836C1126.22 731.23 1125.8 730.624 1125.36 730C1125.36 729.34 1125.36 728.68 1125.36 728C1124.7 728 1124.04 728 1123.36 728C1122.93 727.31 1122.49 726.621 1122.04 725.91C1118.22 719.887 1114.35 713.913 1110.36 708C1110.36 707.34 1110.36 706.68 1110.36 706C1109.7 706 1109.04 706 1108.36 706C1108.03 704.68 1107.7 703.36 1107.36 702C1106.7 702 1106.04 702 1105.36 702C1104.34 700.33 1104.34 700.33 1103.3 698.625C1101.22 695.272 1098.99 692.071 1096.67 688.875C1094.63 685.991 1093.24 683.692 1091.92 680.375C1091.74 679.591 1091.55 678.808 1091.36 678C1090.7 678 1090.04 678 1089.36 678C1089.36 678.622 1089.37 679.243 1089.37 679.884C1089.5 716.786 1089.61 753.687 1089.67 790.589C1089.67 795.027 1089.68 799.465 1089.69 803.903C1089.69 804.787 1089.69 805.67 1089.7 806.581C1089.72 820.856 1089.77 835.132 1089.82 849.408C1089.88 864.073 1089.91 878.738 1089.93 893.404C1089.93 902.442 1089.96 911.479 1090.01 920.517C1090.04 926.728 1090.05 932.939 1090.04 939.15C1090.04 942.725 1090.04 946.299 1090.08 949.874C1090.27 972.193 1090.27 972.193 1088.08 980.61C1085.9 987.752 1083.07 994.685 1078.89 1000.91C1078.39 1001.6 1077.88 1002.29 1077.36 1003C1076.9 1003.69 1076.43 1004.38 1075.95 1005.09C1074.23 1007.38 1072.56 1009.15 1070.36 1011C1064.65 1014.73 1058.55 1017.79 1052.18 1020.2C1042.55 1022.21 1032.14 1021.62 1022.36 1021C1018.74 1020.55 1015.47 1019.65 1012.05 1018.34C1006.07 1015.37 1000.67 1011.99 995.611 1007.63C994.868 1006.76 994.126 1005.89 993.361 1005C992.809 1004.38 992.258 1003.75 991.689 1003.11C988.199 998.96 985.645 994.861 983.486 989.875C981.72 985.561 980.907 981.626 980.361 977C980.272 974.377 980.225 971.782 980.232 969.16C980.231 968.398 980.229 967.635 980.227 966.849C980.222 964.297 980.225 961.745 980.227 959.193C980.225 957.344 980.223 955.494 980.22 953.645C980.214 948.564 980.214 943.484 980.216 938.404C980.216 932.924 980.21 927.444 980.206 921.964C980.197 911.228 980.194 900.492 980.194 889.755C980.193 881.028 980.191 872.301 980.188 863.574C980.181 842.856 980.175 822.138 980.175 801.42C980.175 800.758 980.175 800.095 980.175 799.413C980.175 796.055 980.175 792.698 980.176 789.34C980.176 788.674 980.176 788.007 980.176 787.32C980.176 785.971 980.176 784.623 980.176 783.275C980.176 762.301 980.169 741.328 980.155 720.354C980.14 696.783 980.131 673.212 980.132 649.64C980.132 637.163 980.13 624.685 980.119 612.208C980.11 601.584 980.108 590.96 980.114 580.335C980.118 574.916 980.118 569.497 980.109 564.078C980.101 559.113 980.103 554.148 980.111 549.183C980.113 547.391 980.111 545.599 980.106 543.807C980.078 534.392 980.131 525.215 982.361 516C983.32 513.11 984.44 510.379 985.736 507.625C986.027 506.966 986.319 506.308 986.619 505.629C988.511 501.455 990.727 497.749 993.361 494C994.021 494 994.681 494 995.361 494C996.021 492.35 996.681 490.7 997.361 489C1005.39 483.187 1013.08 477.972 1022.49 474.688C1029.84 472.582 1036.77 472.348 1044.36 473Z" fill="rgb(249,253,251)" fill-rule="nonzero" />
	<path id="矢量 8" d="M371.361 927C423.501 927 475.641 927 529.361 927C529.423 943.665 529.485 960.33 529.548 977.5C529.589 985.378 529.589 985.378 529.631 993.416C529.645 999.854 529.645 999.854 529.647 1002.87C529.652 1004.97 529.662 1007.07 529.678 1009.17C529.7 1012.35 529.703 1015.54 529.702 1018.73C529.712 1019.66 529.723 1020.58 529.734 1021.54C529.718 1024.99 529.623 1028.08 528.67 1031.41C527.967 1033.3 527.173 1035.16 526.361 1037C524.711 1038.65 523.061 1040.3 521.361 1042C520.701 1042 520.041 1042 519.361 1042C519.361 1042.66 519.361 1043.32 519.361 1044C516.107 1045.17 513.197 1045.94 509.741 1046.19C506.566 1046.27 503.395 1046.28 500.219 1046.27C499.011 1046.28 497.804 1046.28 496.56 1046.29C493.264 1046.3 489.969 1046.3 486.674 1046.3C483.915 1046.3 481.157 1046.31 478.399 1046.31C471.888 1046.32 465.377 1046.32 458.867 1046.32C452.165 1046.31 445.464 1046.32 438.763 1046.34C432.995 1046.36 427.227 1046.37 421.458 1046.36C418.019 1046.36 414.581 1046.36 411.142 1046.38C407.306 1046.39 403.469 1046.38 399.633 1046.37C398.504 1046.38 397.375 1046.39 396.211 1046.4C388.623 1046.34 388.623 1046.34 384.826 1045.31C382.973 1044.62 381.16 1043.82 379.361 1043C377.711 1041.35 376.061 1039.7 374.361 1038C373.176 1035.31 372.165 1032.81 371.361 1030C370.959 1026.54 370.98 1023.12 371.02 1019.64C371.02 1018.61 371.02 1017.59 371.019 1016.54C371.022 1013.26 371.044 1009.97 371.068 1006.69C371.072 1004.65 371.075 1002.61 371.077 1000.58C371.093 993.051 371.135 985.525 371.173 978C371.235 961.17 371.297 944.34 371.361 927Z" fill="rgb(247,252,250)" fill-rule="nonzero" />
	<path id="矢量 9" d="M1301.36 448C1342.94 448 1384.52 448 1427.36 448C1435.36 452 1435.36 452 1438.17 454.312C1440.17 456.761 1441.55 458.996 1442.75 461.911C1443.67 465.065 1443.72 468.072 1443.73 471.344C1443.72 472.273 1443.71 473.201 1443.7 474.158C1443.7 475.154 1443.7 476.15 1443.7 477.176C1443.7 480.449 1443.68 483.723 1443.65 486.996C1443.65 489.273 1443.64 491.55 1443.64 493.827C1443.63 499.806 1443.6 505.785 1443.57 511.764C1443.54 517.871 1443.52 523.977 1443.51 530.084C1443.48 542.056 1443.42 554.028 1443.36 566C1443.03 566.33 1442.7 566.66 1442.36 567C1391.21 567 1340.06 567 1287.36 567C1287.03 566.67 1286.7 566.34 1286.36 566C1286.36 531.68 1286.36 497.36 1286.36 462C1291.25 454.667 1291.25 454.667 1294.36 452C1296.67 450.68 1298.98 449.36 1301.36 448Z" fill="rgb(251,253,251)" fill-rule="nonzero" />
	<path id="矢量 11" d="M1301.36 448C1342.94 448 1384.52 448 1427.36 448C1435.36 452 1435.36 452 1438.17 454.312C1440.17 456.761 1441.55 458.996 1442.75 461.911C1443.67 465.065 1443.72 468.072 1443.73 471.344C1443.72 472.273 1443.71 473.201 1443.7 474.158C1443.7 475.154 1443.7 476.15 1443.7 477.176C1443.7 480.449 1443.68 483.723 1443.65 486.996C1443.65 489.273 1443.64 491.55 1443.64 493.827C1443.63 499.806 1443.6 505.785 1443.57 511.764C1443.54 517.871 1443.52 523.977 1443.51 530.084C1443.48 542.056 1443.42 554.028 1443.36 566C1443.03 566.33 1442.7 566.66 1442.36 567C1391.21 567 1340.06 567 1287.36 567C1286.87 564.525 1286.87 564.525 1286.36 562C1287.02 562.66 1287.68 563.32 1288.36 564C1303.93 564.024 1319.5 564.041 1335.07 564.052C1342.31 564.057 1349.54 564.064 1356.77 564.075C1363.09 564.086 1369.41 564.092 1375.73 564.094C1379.06 564.095 1382.39 564.099 1385.73 564.106C1403.3 564.141 1420.81 563.788 1438.36 563C1438.69 562.67 1439.02 562.34 1439.36 562C1439.36 528.34 1439.36 494.68 1439.36 460C1438.7 460 1438.04 460 1437.36 460C1437.03 458.68 1436.7 457.36 1436.36 456C1434.71 455.67 1433.06 455.34 1431.36 455C1430.37 454.01 1429.38 453.02 1428.36 452C1416.69 451.837 1416.69 451.837 1405.05 452.562C1401.24 452.937 1397.79 452.928 1393.99 452.5C1386.91 451.744 1379.92 452.247 1372.84 452.682C1371.92 452.735 1370.99 452.789 1370.04 452.844C1369.21 452.897 1368.39 452.951 1367.53 453.006C1366.81 453.004 1366.1 453.002 1365.36 453C1364.37 452.67 1363.38 452.34 1362.36 452C1360.35 451.911 1358.34 451.882 1356.33 451.886C1354.47 451.887 1354.47 451.887 1352.57 451.887C1351.21 451.892 1349.86 451.897 1348.51 451.902C1347.12 451.904 1345.73 451.906 1344.35 451.907C1340.7 451.91 1337.06 451.92 1333.41 451.931C1329.69 451.942 1325.97 451.946 1322.25 451.951C1314.96 451.962 1307.66 451.979 1300.36 452C1300.36 452.66 1300.36 453.32 1300.36 454C1298.38 454.99 1298.38 454.99 1296.36 456C1294.71 456 1293.06 456 1291.36 456C1291.69 455.01 1292.02 454.02 1292.36 453C1295.33 451.35 1298.3 449.7 1301.36 448Z" fill="rgb(196,246,239)" fill-rule="nonzero" />
	<path id="矢量 12" d="M1311.36 620C1346.34 620 1381.32 620 1417.36 620C1417.86 620.495 1417.86 620.495 1418.36 621C1418.41 664.84 1418.44 708.68 1418.46 752.52C1418.47 757.699 1418.47 762.879 1418.47 768.058C1418.47 769.089 1418.47 770.12 1418.47 771.183C1418.48 787.863 1418.5 804.544 1418.52 821.225C1418.53 838.349 1418.54 855.473 1418.55 872.597C1418.55 883.158 1418.56 893.719 1418.58 904.28C1418.59 911.529 1418.59 918.777 1418.59 926.026C1418.59 930.204 1418.59 934.381 1418.6 938.559C1418.61 942.393 1418.61 946.226 1418.6 950.06C1418.6 952.086 1418.61 954.111 1418.62 956.137C1418.59 964.615 1417.77 972.643 1416.36 981C1415.7 981.66 1415.04 982.32 1414.36 983C1414.36 980.03 1414.36 977.06 1414.36 974C1414.69 973.34 1415.02 972.68 1415.36 972C1415.39 965.875 1415.41 959.75 1415.42 953.625C1415.43 952.715 1415.43 951.805 1415.43 950.867C1415.45 938.737 1415.34 926.649 1414.63 914.536C1414.36 909.362 1414.44 904.359 1414.85 899.192C1415.45 890.854 1415.49 882.541 1415.46 874.186C1415.46 872.555 1415.46 870.924 1415.45 869.292C1415.45 865.795 1415.44 862.297 1415.44 858.799C1415.42 853.161 1415.42 847.524 1415.41 841.886C1415.4 827.817 1415.38 813.747 1415.35 799.678C1415.33 785.965 1415.31 772.252 1415.3 758.539C1415.3 757.57 1415.3 756.6 1415.3 755.602C1415.26 711.063 1415.74 666.534 1416.36 622C1380.96 621.874 1380.96 621.874 1345.57 622.642C1334.83 623.012 1324.11 623.111 1313.36 623C1313.03 623.66 1312.7 624.32 1312.36 625C1312.03 689.68 1311.7 754.36 1311.36 821C1311.03 821 1310.7 821 1310.36 821C1310.36 755 1310.36 689 1310.36 621C1310.69 620.67 1311.02 620.34 1311.36 620Z" fill="rgb(140,222,211)" fill-rule="nonzero" />
	<path id="矢量 13" d="M503.361 657C503.691 657 504.021 657 504.361 657C504.365 657.886 504.369 658.772 504.374 659.684C504.477 681.34 504.586 702.995 504.7 724.651C504.755 735.124 504.809 745.597 504.858 756.07C504.901 765.208 504.948 774.347 504.998 783.486C505.024 788.315 505.049 793.145 505.07 797.974C504.665 829.263 504.665 829.263 506.922 860.403C507.361 864 507.361 864 506.923 867C506.645 867.99 506.645 867.99 506.361 869C507.021 869.33 507.681 869.66 508.361 870C508.031 872.31 507.701 874.62 507.361 877C505.757 877.169 504.153 877.335 502.548 877.5C501.655 877.593 500.762 877.686 499.841 877.781C496.629 878.065 493.939 877.935 490.736 877.438C483.314 876.548 475.786 877.446 468.361 878C468.031 877.34 467.701 876.68 467.361 876C470.661 875.67 473.961 875.34 477.361 875C437.761 874.505 437.761 874.505 397.361 874C397.361 873.67 397.361 873.34 397.361 873C432.341 873 467.321 873 503.361 873C503.361 801.72 503.361 730.44 503.361 657Z" fill="rgb(77,189,171)" fill-rule="nonzero" />
	<path id="矢量 14" d="M1440.36 459C1441.35 459.495 1441.35 459.495 1442.36 460C1443.18 462.857 1443.48 465.386 1443.48 468.353C1443.48 469.649 1443.48 469.649 1443.49 470.971C1443.48 471.91 1443.48 472.85 1443.47 473.817C1443.47 474.813 1443.47 475.808 1443.47 476.834C1443.47 480.124 1443.47 483.413 1443.46 486.703C1443.46 488.984 1443.46 491.265 1443.45 493.547C1443.45 499.55 1443.44 505.554 1443.43 511.558C1443.42 517.685 1443.41 523.811 1443.41 529.938C1443.4 541.958 1443.38 553.979 1443.36 566C1443.03 566.33 1442.7 566.66 1442.36 567C1391.21 567 1340.06 567 1287.36 567C1287.36 566.67 1287.36 566.34 1287.36 566C1338.18 565.67 1389 565.34 1441.36 565C1441.38 549.181 1441.4 533.361 1441.42 517.062C1441.43 512.08 1441.44 507.098 1441.45 501.965C1441.45 497.472 1441.45 497.472 1441.46 492.979C1441.46 490.988 1441.46 488.998 1441.47 487.007C1441.47 483.98 1441.47 480.953 1441.47 477.926C1441.48 477.05 1441.48 476.173 1441.49 475.27C1441.48 469.773 1441.05 464.455 1440.36 459Z" fill="rgb(152,229,220)" fill-rule="nonzero" />
	<path id="矢量 15" d="M786.361 658C787.021 658 787.681 658 788.361 658C788.361 760.63 788.361 863.26 788.361 969C788.031 969 787.701 969 787.361 969C787.359 968.366 787.357 967.733 787.356 967.08C787.253 929.553 787.145 892.026 787.03 854.499C787.016 849.996 787.002 845.493 786.989 840.991C786.986 840.095 786.983 839.198 786.98 838.275C786.936 823.746 786.896 809.218 786.856 794.69C786.816 779.791 786.772 764.891 786.724 749.992C786.695 740.793 786.668 731.594 786.646 722.395C786.63 716.093 786.61 709.791 786.588 703.49C786.575 699.85 786.564 696.21 786.557 692.57C786.55 688.63 786.535 684.69 786.519 680.75C786.518 679.012 786.518 679.012 786.516 677.239C786.511 676.188 786.505 675.137 786.5 674.054C786.497 673.144 786.494 672.234 786.491 671.296C786.452 668.837 786.452 668.837 785.361 666C783.381 666.66 781.401 667.32 779.361 668C780.859 664.888 782.56 661.947 784.361 659C785.021 658.67 785.681 658.34 786.361 658Z" fill="rgb(90,186,174)" fill-rule="nonzero" />
	<path id="矢量 16" d="M620.361 662C622.156 663.624 623.463 665.162 624.763 667.215C625.27 668.113 625.776 669.012 626.298 669.938C630.186 676.737 634.219 683.443 638.273 690.144C638.772 690.973 639.272 691.802 639.787 692.656C640.458 693.767 640.458 693.767 641.143 694.9C642.302 696.899 643.352 698.922 644.361 701C646.836 700.505 646.836 700.505 649.361 700C650.812 698.738 650.812 698.738 652.361 697C653.185 695.507 653.952 693.982 654.673 692.438C656.9 687.821 659.418 683.478 662.126 679.129C663.495 676.933 663.495 676.933 664.361 674C665.021 674 665.681 674 666.361 674C666.608 673.134 666.856 672.268 667.111 671.375C668.429 667.817 670.163 665.077 672.361 662C672.856 663.98 672.856 663.98 673.361 666C672.701 666.99 672.041 667.98 671.361 669C670.778 670.548 670.238 672.112 669.736 673.688C669.475 674.496 669.215 675.304 668.947 676.137C668.753 676.752 668.56 677.366 668.361 678C667.701 678 667.041 678 666.361 678C666.093 678.887 665.825 679.774 665.548 680.688C664.431 683.805 663.209 686.265 661.361 689C660.866 689.474 660.371 689.949 659.861 690.438C658.113 692.115 658.113 692.115 656.673 695.188C656.24 696.116 655.807 697.044 655.361 698C654.371 698.33 653.381 698.66 652.361 699C652.361 699.99 652.361 700.98 652.361 702C649.061 702 645.761 702 642.361 702C641.041 701.34 639.721 700.68 638.361 700C636.658 698.273 636.658 698.273 635.111 696.375C634.59 695.743 634.069 695.112 633.533 694.461C633.146 693.979 632.759 693.497 632.361 693C632.361 692.34 632.361 691.68 632.361 691C631.371 690.67 630.381 690.34 629.361 690C629.361 689.34 629.361 688.68 629.361 688C628.371 687.67 627.381 687.34 626.361 687C626.095 685.831 625.83 684.662 625.556 683.457C625.2 681.909 624.843 680.361 624.486 678.812C624.312 678.044 624.138 677.275 623.958 676.482C623.031 672.481 621.908 668.812 620.361 665C620.361 664.01 620.361 663.02 620.361 662Z" fill="rgb(190,243,237)" fill-rule="nonzero" />
	<path id="矢量 17" d="M848.223 474.077C854.299 475.457 859.586 477.361 865.048 480.438C869.09 483.017 872.828 485.761 876.361 489C874.876 489.495 874.876 489.495 873.361 490C873.361 489.34 873.361 488.68 873.361 488C872.371 488 871.381 488 870.361 488C870.361 487.34 870.361 486.68 870.361 486C869.666 485.878 868.971 485.755 868.255 485.629C865.091 484.942 862.113 483.982 859.048 482.938C857.98 482.575 856.911 482.213 855.81 481.84C855.002 481.563 854.194 481.286 853.361 481C853.361 480.34 853.361 479.68 853.361 479C848.497 477.483 844.118 476.84 839.017 476.735C836.632 476.727 834.246 476.732 831.861 476.75C830.004 476.756 830.004 476.756 828.11 476.762C819.057 476.847 810.282 477.449 801.361 479C803.899 477.308 805.72 476.394 808.548 475.438C809.264 475.189 809.979 474.94 810.716 474.684C822.487 471.641 836.343 471.765 848.223 474.077Z" fill="rgb(185,245,239)" fill-rule="nonzero" />
	<path id="矢量 18" d="M687.361 815C688.351 815.495 688.351 815.495 689.361 816C688.371 817.32 687.381 818.64 686.361 820C685.701 820 685.041 820 684.361 820C683.701 821.32 683.041 822.64 682.361 824C677.169 828.352 671.995 831.958 665.916 834.957C662.732 836.257 659.72 837.227 656.361 838C653.022 838.271 649.709 838.28 646.361 838.25C645.497 838.258 644.633 838.265 643.744 838.273C639.791 838.261 636.394 838.008 632.525 837.102C628.332 835.642 624.303 834.048 620.361 832C617.298 829.75 617.298 829.75 615.361 828C618.815 828.591 621.732 829.506 624.923 830.938C630.641 833.267 636.231 834.368 642.361 835C647.58 835.386 652.484 835.346 657.642 834.395C662.138 833.32 666.283 832.212 670.361 830C670.691 829.01 671.021 828.02 671.361 827C673.008 826.288 674.678 825.626 676.361 825C677.351 825 678.341 825 679.361 825C679.361 824.34 679.361 823.68 679.361 823C680.021 823 680.681 823 681.361 823C681.361 822.34 681.361 821.68 681.361 821C682.021 821 682.681 821 683.361 821C683.691 819.68 684.021 818.36 684.361 817C685.351 816.34 686.341 815.68 687.361 815Z" fill="rgb(176,241,234)" fill-rule="nonzero" />
	<path id="矢量 19" d="M992.361 496C992.691 496 993.021 496 993.361 496C993.361 497.98 993.361 499.96 993.361 502C992.041 503.65 990.721 505.3 989.361 507C989.031 508.65 988.701 510.3 988.361 512C987.701 512 987.041 512 986.361 512C984.81 515.98 983.531 519.64 983.001 523.887C982.447 531.767 982.158 539.622 982.044 547.52C982.024 548.744 982.003 549.969 981.982 551.23C981.917 555.091 981.857 558.952 981.798 562.812C981.755 565.451 981.711 568.09 981.668 570.729C981.561 577.152 981.459 583.576 981.361 590C981.031 590 980.701 590 980.361 590C980.314 582.123 980.279 574.247 980.257 566.37C980.247 562.712 980.233 559.053 980.21 555.395C980.188 551.854 980.176 548.314 980.171 544.774C980.166 542.787 980.15 540.8 980.134 538.812C980.133 531.042 980.608 523.59 982.361 516C983.336 513.067 984.482 510.295 985.798 507.5C986.098 506.825 986.398 506.149 986.707 505.453C988.273 502.001 989.929 498.916 992.361 496Z" fill="rgb(160,235,225)" fill-rule="nonzero" />
	<path id="矢量 21" d="M573.361 582C576.99 586.247 579.753 590.814 582.548 595.625C583.224 596.77 583.224 596.77 583.914 597.938C585.683 600.961 587.249 603.664 588.361 607C587.041 606.34 585.721 605.68 584.361 605C583.701 603.35 583.041 601.7 582.361 600C581.371 599.67 580.381 599.34 579.361 599C579.031 597.02 578.701 595.04 578.361 593C577.371 592.67 576.381 592.34 575.361 592C575.361 591.34 575.361 590.68 575.361 590C574.701 590 574.041 590 573.361 590C573.361 587.36 573.361 584.72 573.361 582Z" fill="rgb(189,242,239)" fill-rule="nonzero" />
	</g>
	</g>
</svg>
